  0
SECTION
  2
HEADER
  9
$ACADVER
  1
AC2.10
  0
ENDSEC
  0
SECTION
  2
TABLES
  0
TABLE
  2
LAYER
 70
     8
  0
LAYER
  2
0
 62
     7
 70
0
  6
CONTINUOUS
  0
LAYER
  2
1
 62
     1
 70
0
  6
CONTINUOUS
  0
LAYER
  2
2
 62
     2
 70
0
  6
CONTINUOUS
  0
LAYER
  2
3
 62
     3
 70
0
  6
CONTINUOUS
  0
LAYER
  2
4
 62
     4
 70
0
  6
CONTINUOUS
  0
LAYER
  2
5
 62
     5
 70
0
  6
CONTINUOUS
  0
LAYER
  2
6
 62
     6
 70
0
  6
CONTINUOUS
  0
LAYER
  2
7
 62
     7
 70
0
  6
CONTINUOUS
  0
ENDTAB
  0
TABLE
  2
STYLE
 70
     1
  0
STYLE
 70
     0
  2
STANDARD
  3
TXT
 40
0.00
 41
1.00
 42
1.00
 50
0.00
 71
     0
  0
ENDTAB
  0
ENDSEC
  0
SECTION
  2
BLOCKS
  0
BLOCK
  8
0
  2
EPAD
 70
0
 10
0.0
 20
0.0
  0
POLYLINE
  8
0
 66
1
 70
1
 40
0.5
 41
0.5
  0
VERTEX
  8
0
 10
-0.25
 20
0.0
 42
1.0
  0
VERTEX
  8
0
 10
0.25
 20
0.0
 42
1.0
  0
SEQEND
  8
0
  0
ENDBLK
  8
0
  0
BLOCK
  8
0
  2
RPAD
 70
0
 10
0.0
 20
0.0
  0
TRACE
  8
0
 10
-0.5
 20
-0.5
 11
-0.5
 21
0.5
 12
0.5
 22
-0.5
 13
0.5
 23
0.5
  0
ENDBLK
  8
0
  0
ENDSEC
0
SECTION
2
ENTITIES
0
POLYLINE
8
0
66
1
40
0.070000
41
0.070000
0
VERTEX
8
0
10
-0.425000
20
-0.225000
0
VERTEX
8
0
10
-0.475000
20
-0.225000
0
VERTEX
8
0
10
-0.575000
20
-0.125000
0
VERTEX
8
0
10
-0.575000
20
0.100000
0
VERTEX
8
0
10
-0.550000
20
0.125000
0
SEQEND
8
0
0
POLYLINE
8
0
66
1
40
0.070000
41
0.070000
0
VERTEX
8
0
10
-0.550000
20
0.575000
0
VERTEX
8
0
10
-0.650000
20
0.675000
0
VERTEX
8
0
10
-0.975000
20
0.675000
0
SEQEND
8
0
0
POLYLINE
8
0
66
1
40
0.070000
41
0.070000
0
VERTEX
8
0
10
-0.325000
20
0.575000
0
VERTEX
8
0
10
-0.175000
20
0.575000
0
VERTEX
8
0
10
0.025000
20
0.375000
0
VERTEX
8
0
10
0.160000
20
0.375000
0
VERTEX
8
0
10
0.375000
20
0.590000
0
VERTEX
8
0
10
0.525000
20
0.590000
0
SEQEND
8
0
0
POLYLINE
8
0
66
1
40
0.070000
41
0.070000
0
VERTEX
8
0
10
-0.550000
20
0.125000
0
VERTEX
8
0
10
-0.575000
20
0.150000
0
VERTEX
8
0
10
-0.575000
20
0.550000
0
VERTEX
8
0
10
-0.550000
20
0.575000
0
SEQEND
8
0
0
POLYLINE
8
0
66
1
40
0.070000
41
0.070000
0
VERTEX
8
0
10
-0.425000
20
-0.225000
0
VERTEX
8
0
10
-0.425000
20
-0.525000
0
SEQEND
8
0
0
POLYLINE
8
0
66
1
40
0.070000
41
0.070000
0
VERTEX
8
0
10
-0.325000
20
0.575000
0
VERTEX
8
0
10
-0.550000
20
0.575000
0
SEQEND
8
0
0
POLYLINE
8
0
66
1
40
0.070000
41
0.070000
0
VERTEX
8
0
10
-0.550000
20
0.125000
0
VERTEX
8
0
10
-0.425000
20
0.125000
0
SEQEND
8
0
0
POLYLINE
8
0
66
1
40
0.070000
41
0.070000
0
VERTEX
8
0
10
-0.425000
20
-0.225000
0
VERTEX
8
0
10
-0.325000
20
-0.225000
0
VERTEX
8
0
10
0.125000
20
-0.175000
0
SEQEND
8
0
0
POLYLINE
8
0
66
1
40
0.070000
41
0.070000
0
VERTEX
8
0
10
-0.975000
20
0.475000
0
VERTEX
8
0
10
-1.100000
20
0.475000
0
VERTEX
8
0
10
-1.100000
20
-0.200000
0
VERTEX
8
0
10
-0.975000
20
-0.325000
0
SEQEND
8
0
0
POLYLINE
8
0
66
1
40
0.070000
41
0.070000
0
VERTEX
8
0
10
-0.975000
20
0.275000
0
VERTEX
8
0
10
-0.850000
20
0.275000
0
VERTEX
8
0
10
-0.850000
20
-0.400000
0
VERTEX
8
0
10
-0.975000
20
-0.525000
0
SEQEND
8
0
0
POLYLINE
8
0
66
1
40
0.100000
41
0.100000
0
VERTEX
8
0
10
0.975000
20
-0.075000
0
VERTEX
8
0
10
0.975000
20
0.075000
0
VERTEX
8
0
10
0.650000
20
0.400000
0
SEQEND
8
0
0
POLYLINE
8
0
66
1
40
0.100000
41
0.100000
0
VERTEX
8
0
10
0.525000
20
0.375000
0
VERTEX
8
0
10
0.400000
20
0.375000
0
VERTEX
8
0
10
0.300000
20
0.275000
0
VERTEX
8
0
10
-0.250000
20
0.275000
0
VERTEX
8
0
10
-0.250000
20
0.100000
0
VERTEX
8
0
10
-0.425000
20
-0.075000
0
SEQEND
8
0
0
POLYLINE
8
0
66
1
40
0.070000
41
0.070000
0
VERTEX
8
0
10
-0.250000
20
0.275000
0
VERTEX
8
0
10
-0.275000
20
0.300000
0
VERTEX
8
0
10
-0.275000
20
0.325000
0
VERTEX
8
0
10
-0.325000
20
0.375000
0
VERTEX
8
0
10
-0.325000
20
0.475000
0
SEQEND
8
0
0
POLYLINE
8
0
66
1
40
0.100000
41
0.100000
0
VERTEX
8
0
10
-0.225000
20
-0.675000
0
VERTEX
8
0
10
-0.225000
20
-0.525000
0
SEQEND
8
0
0
POLYLINE
8
0
66
1
40
0.100000
41
0.100000
0
VERTEX
8
0
10
0.525000
20
0.375000
0
VERTEX
8
0
10
0.650000
20
0.375000
0
VERTEX
8
0
10
0.650000
20
0.400000
0
SEQEND
8
0
0
POLYLINE
8
0
66
1
40
0.100000
41
0.100000
0
VERTEX
8
0
10
-0.225000
20
-0.675000
0
VERTEX
8
0
10
-0.175000
20
-0.725000
0
VERTEX
8
0
10
0.250000
20
-0.725000
0
SEQEND
8
0
0
POLYLINE
8
0
66
1
40
0.100000
41
0.100000
0
VERTEX
8
0
10
0.575000
20
-0.575000
0
VERTEX
8
0
10
0.425000
20
-0.725000
0
VERTEX
8
0
10
0.250000
20
-0.725000
0
SEQEND
8
0
0
POLYLINE
8
0
66
1
40
0.100000
41
0.100000
0
VERTEX
8
0
10
-0.225000
20
-0.675000
0
VERTEX
8
0
10
-0.275000
20
-0.725000
0
VERTEX
8
0
10
-0.975000
20
-0.725000
0
SEQEND
8
0
0
POLYLINE
8
0
66
1
40
0.070000
41
0.070000
0
VERTEX
8
0
10
0.575000
20
-0.375000
0
VERTEX
8
0
10
0.325000
20
-0.375000
0
VERTEX
8
0
10
0.125000
20
-0.575000
0
SEQEND
8
0
0
POLYLINE
8
0
66
1
40
0.070000
41
0.070000
0
VERTEX
8
0
10
0.575000
20
-0.375000
0
VERTEX
8
0
10
0.700000
20
-0.375000
0
VERTEX
8
0
10
0.800000
20
-0.275000
0
VERTEX
8
0
10
0.975000
20
-0.275000
0
SEQEND
8
0
0
POLYLINE
8
0
66
1
40
0.070000
41
0.070000
0
VERTEX
8
0
10
0.575000
20
-0.375000
0
VERTEX
8
0
10
0.575000
20
-0.250000
0
VERTEX
8
0
10
0.525000
20
-0.200000
0
VERTEX
8
0
10
0.525000
20
0.160000
0
VERTEX
8
0
10
0.490000
20
0.125000
0
VERTEX
8
0
10
0.125000
20
0.125000
0
SEQEND
8
0
0
POLYLINE
8
0
66
1
40
0.100000
41
0.100000
0
VERTEX
8
0
10
0.575000
20
-0.575000
0
VERTEX
8
0
10
1.000000
20
-0.575000
0
VERTEX
8
0
10
1.125000
20
-0.450000
0
VERTEX
8
0
10
1.125000
20
-0.225000
0
VERTEX
8
0
10
0.975000
20
-0.075000
0
SEQEND
8
0
0
POLYLINE
8
0
66
1
40
0.100000
41
0.100000
0
VERTEX
8
0
10
0.650000
20
0.400000
0
VERTEX
8
0
10
0.675000
20
0.400000
0
VERTEX
8
0
10
0.675000
20
0.775000
0
VERTEX
8
0
10
0.125000
20
0.775000
0
VERTEX
8
0
10
0.125000
20
0.525000
0
SEQEND
8
0
0
INSERT
8
0
2
RPAD
10
-0.975000
20
0.675000
41
0.150000
42
0.150000
50
0.000000
0
CIRCLE
8
0
10
-0.975000
20
0.675000
40
0.030000
0
INSERT
8
0
2
RPAD
10
-0.975000
20
0.075000
41
0.150000
42
0.150000
50
0.000000
0
CIRCLE
8
0
10
-0.975000
20
0.075000
40
0.030000
0
INSERT
8
0
2
RPAD
10
-0.975000
20
0.475000
41
0.150000
42
0.150000
50
0.000000
0
CIRCLE
8
0
10
-0.975000
20
0.475000
40
0.030000
0
INSERT
8
0
2
RPAD
10
-0.975000
20
0.275000
41
0.150000
42
0.150000
50
0.000000
0
CIRCLE
8
0
10
-0.975000
20
0.275000
40
0.030000
0
INSERT
8
0
2
EPAD
10
0.575000
20
-0.375000
41
0.150000
42
0.150000
0
CIRCLE
8
0
10
0.575000
20
-0.375000
40
0.030000
0
INSERT
8
0
2
EPAD
10
0.575000
20
-0.575000
41
0.150000
42
0.150000
0
CIRCLE
8
0
10
0.575000
20
-0.575000
40
0.030000
0
INSERT
8
0
2
EPAD
10
-0.325000
20
0.575000
41
0.080000
42
0.080000
0
CIRCLE
8
0
10
-0.325000
20
0.575000
40
0.025000
0
INSERT
8
0
2
EPAD
10
-0.325000
20
0.475000
41
0.080000
42
0.080000
0
CIRCLE
8
0
10
-0.325000
20
0.475000
40
0.025000
0
INSERT
8
0
2
EPAD
10
-0.425000
20
0.125000
41
0.150000
42
0.150000
0
CIRCLE
8
0
10
-0.425000
20
0.125000
40
0.030000
0
INSERT
8
0
2
EPAD
10
-0.425000
20
-0.075000
41
0.150000
42
0.150000
0
CIRCLE
8
0
10
-0.425000
20
-0.075000
40
0.030000
0
INSERT
8
0
2
EPAD
10
-0.425000
20
-0.525000
41
0.150000
42
0.150000
0
CIRCLE
8
0
10
-0.425000
20
-0.525000
40
0.030000
0
INSERT
8
0
2
EPAD
10
-0.225000
20
-0.525000
41
0.150000
42
0.150000
0
CIRCLE
8
0
10
-0.225000
20
-0.525000
40
0.030000
0
INSERT
8
0
2
EPAD
10
0.125000
20
0.525000
41
0.150000
42
0.150000
0
CIRCLE
8
0
10
0.125000
20
0.525000
40
0.030000
0
INSERT
8
0
2
EPAD
10
0.125000
20
0.125000
41
0.150000
42
0.150000
0
CIRCLE
8
0
10
0.125000
20
0.125000
40
0.030000
0
INSERT
8
0
2
EPAD
10
0.125000
20
-0.575000
41
0.150000
42
0.150000
0
CIRCLE
8
0
10
0.125000
20
-0.575000
40
0.030000
0
INSERT
8
0
2
EPAD
10
0.125000
20
-0.175000
41
0.150000
42
0.150000
0
CIRCLE
8
0
10
0.125000
20
-0.175000
40
0.030000
0
INSERT
8
0
2
EPAD
10
0.975000
20
-0.275000
41
0.150000
42
0.150000
0
CIRCLE
8
0
10
0.975000
20
-0.275000
40
0.030000
0
INSERT
8
0
2
EPAD
10
0.975000
20
-0.075000
41
0.150000
42
0.150000
0
CIRCLE
8
0
10
0.975000
20
-0.075000
40
0.030000
0
INSERT
8
0
2
EPAD
10
-0.975000
20
-0.725000
41
0.150000
42
0.150000
0
CIRCLE
8
0
10
-0.975000
20
-0.725000
40
0.030000
0
INSERT
8
0
2
EPAD
10
-0.975000
20
-0.525000
41
0.150000
42
0.150000
0
CIRCLE
8
0
10
-0.975000
20
-0.525000
40
0.030000
0
INSERT
8
0
2
EPAD
10
-0.975000
20
-0.325000
41
0.150000
42
0.150000
0
CIRCLE
8
0
10
-0.975000
20
-0.325000
40
0.030000
0
INSERT
8
0
2
RPAD
10
0.525000
20
0.590000
41
0.150000
42
0.150000
50
-90.000000
0
CIRCLE
8
0
10
0.525000
20
0.590000
40
0.030000
0
INSERT
8
0
2
RPAD
10
0.525000
20
0.375000
41
0.150000
42
0.150000
50
-90.000000
0
CIRCLE
8
0
10
0.525000
20
0.375000
40
0.030000
0
INSERT
8
0
2
RPAD
10
0.525000
20
0.160000
41
0.150000
42
0.150000
50
-90.000000
0
CIRCLE
8
0
10
0.525000
20
0.160000
40
0.030000
0
ENDSEC
0
EOF

